<svg xmlns="http://www.w3.org/2000/svg" xmlns:xlink="http://www.w3.org/1999/xlink" version="1.1" width="256" height="256" viewBox="0 0 256 256" xml:space="preserve">

<defs>
</defs>
<g style="stroke: none; stroke-width: 0; stroke-dasharray: none; stroke-linecap: butt; stroke-linejoin: miter; stroke-miterlimit: 10; fill: none; fill-rule: nonzero; opacity: 1;" transform="translate(4.681712062256807 4.6817120622567785) scale(2.73 2.73)" >
	<circle cx="45" cy="45" r="45" style="stroke: none; stroke-width: 1; stroke-dasharray: none; stroke-linecap: butt; stroke-linejoin: miter; stroke-miterlimit: 10; fill: rgb(143,193,227); fill-rule: nonzero; opacity: 1;" transform="  matrix(1 0 0 1 0 0) "/>
	<path d="M 29.404 72 h -7.521 c -0.958 0 -1.734 -0.776 -1.734 -1.734 V 54.507 c 0 -0.958 0.776 -1.734 1.734 -1.734 h 7.521 c 0.958 0 1.734 0.776 1.734 1.734 v 15.759 C 31.138 71.224 30.362 72 29.404 72 z" style="stroke: none; stroke-width: 1; stroke-dasharray: none; stroke-linecap: butt; stroke-linejoin: miter; stroke-miterlimit: 10; fill: rgb(125,168,197); fill-rule: nonzero; opacity: 1;" transform=" matrix(1 0 0 1 0 0) " stroke-linecap="round" />
	<path d="M 46.082 72 h -7.521 c -0.958 0 -1.734 -0.776 -1.734 -1.734 V 43.932 c 0 -0.958 0.776 -1.734 1.734 -1.734 h 7.521 c 0.958 0 1.734 0.776 1.734 1.734 v 26.334 C 47.816 71.224 47.04 72 46.082 72 z" style="stroke: none; stroke-width: 1; stroke-dasharray: none; stroke-linecap: butt; stroke-linejoin: miter; stroke-miterlimit: 10; fill: rgb(125,168,197); fill-rule: nonzero; opacity: 1;" transform=" matrix(1 0 0 1 0 0) " stroke-linecap="round" />
	<path d="M 62.76 72 h -7.521 c -0.958 0 -1.734 -0.776 -1.734 -1.734 V 23.091 c 0 -0.958 0.776 -1.734 1.734 -1.734 h 7.521 c 0.958 0 1.734 0.776 1.734 1.734 v 47.175 C 64.493 71.224 63.717 72 62.76 72 z" style="stroke: none; stroke-width: 1; stroke-dasharray: none; stroke-linecap: butt; stroke-linejoin: miter; stroke-miterlimit: 10; fill: rgb(125,168,197); fill-rule: nonzero; opacity: 1;" transform=" matrix(1 0 0 1 0 0) " stroke-linecap="round" />
	<path d="M 32.762 68.643 H 25.24 c -0.958 0 -1.734 -0.776 -1.734 -1.734 V 51.149 c 0 -0.958 0.776 -1.734 1.734 -1.734 h 7.521 c 0.958 0 1.734 0.776 1.734 1.734 v 15.759 C 34.496 67.866 33.719 68.643 32.762 68.643 z" style="stroke: none; stroke-width: 1; stroke-dasharray: none; stroke-linecap: butt; stroke-linejoin: miter; stroke-miterlimit: 10; fill: rgb(105,89,89); fill-rule: nonzero; opacity: 1;" transform=" matrix(1 0 0 1 0 0) " stroke-linecap="round" />
	<path d="M 49.439 68.643 h -7.521 c -0.958 0 -1.734 -0.776 -1.734 -1.734 V 40.574 c 0 -0.958 0.776 -1.734 1.734 -1.734 h 7.521 c 0.958 0 1.734 0.776 1.734 1.734 v 26.334 C 51.173 67.866 50.397 68.643 49.439 68.643 z" style="stroke: none; stroke-width: 1; stroke-dasharray: none; stroke-linecap: butt; stroke-linejoin: miter; stroke-miterlimit: 10; fill: rgb(105,89,89); fill-rule: nonzero; opacity: 1;" transform=" matrix(1 0 0 1 0 0) " stroke-linecap="round" />
	<path d="M 66.117 68.643 h -7.521 c -0.958 0 -1.734 -0.776 -1.734 -1.734 V 19.734 c 0 -0.958 0.776 -1.734 1.734 -1.734 h 7.521 c 0.958 0 1.734 0.776 1.734 1.734 v 47.175 C 67.851 67.866 67.075 68.643 66.117 68.643 z" style="stroke: none; stroke-width: 1; stroke-dasharray: none; stroke-linecap: butt; stroke-linejoin: miter; stroke-miterlimit: 10; fill: rgb(105,89,89); fill-rule: nonzero; opacity: 1;" transform=" matrix(1 0 0 1 0 0) " stroke-linecap="round" />
</g>
</svg>